<?xml version="1.0" encoding="UTF-8"?>
<svg xmlns="http://www.w3.org/2000/svg" width="30.74" height="21.99" viewBox="-4.62 -3.87 30.74 21.99">
  <title>Sample Residential Site Plan</title>
  <metadata>unit=m; author=Savan Mohebi / CivilCAD MVP; schema=1</metadata>
  <g fill="none" stroke-linecap="round" stroke-linejoin="round">
    <rect x="0" y="0" width="24" height="16" stroke="#38bdf8" stroke-width="2.5" />
    <rect x="2" y="2" width="20" height="12" stroke="#facc15" stroke-width="1.0" />
    <rect x="5" y="4" width="12" height="8" stroke="#f8fafc" stroke-width="2.5" />
    <rect x="8" y="3" width="6" height="1" stroke="#fbbf24" stroke-width="2.0" />
    <line x1="11" y1="4" x2="11" y2="12" stroke="#a7f3d0" stroke-width="1.4" />
    <line x1="5" y1="8" x2="17" y2="8" stroke="#a7f3d0" stroke-width="1.4" />
    <line x1="14" y1="8" x2="14" y2="12" stroke="#a7f3d0" stroke-width="1.4" />
    <line x1="10" y1="4" x2="10" y2="3.35" stroke="#f8fafc" stroke-width="1.4" />
    <line x1="10" y1="3.35" x2="10.9" y2="4" stroke="#f8fafc" stroke-width="1.2" />
    <line x1="11" y1="7.15" x2="11.9" y2="8" stroke="#f8fafc" stroke-width="1.2" />
    <line x1="13.1" y1="8" x2="14" y2="8.85" stroke="#f8fafc" stroke-width="1.2" />
    <rect x="1" y="1" width="6" height="3" stroke="#64748b" stroke-width="1.7" />
    <line x1="7" y1="2.6" x2="8" y2="3.5" stroke="#cbd5e1" stroke-width="1.5" />
    <line x1="7" y1="2" x2="8" y2="3" stroke="#cbd5e1" stroke-width="1.5" />
    <circle cx="3" cy="13" r="0.8" stroke="#22c55e" stroke-width="1.5" />
    <line x1="2.44" y1="13" x2="3.56" y2="13" stroke="#16a34a" stroke-width="1.0" />
    <line x1="3" y1="12.44" x2="3" y2="13.56" stroke="#16a34a" stroke-width="1.0" />
    <circle cx="20" cy="12.5" r="0.9" stroke="#22c55e" stroke-width="1.5" />
    <line x1="19.37" y1="12.5" x2="20.63" y2="12.5" stroke="#16a34a" stroke-width="1.0" />
    <line x1="20" y1="11.87" x2="20" y2="13.13" stroke="#16a34a" stroke-width="1.0" />
    <circle cx="21" cy="3.2" r="0.7" stroke="#22c55e" stroke-width="1.5" />
    <line x1="20.51" y1="3.2" x2="21.49" y2="3.2" stroke="#16a34a" stroke-width="1.0" />
    <line x1="21" y1="2.71" x2="21" y2="3.69" stroke="#16a34a" stroke-width="1.0" />
    <circle cx="3" cy="6" r="0.6" stroke="#22c55e" stroke-width="1.5" />
    <line x1="2.58" y1="6" x2="3.42" y2="6" stroke="#16a34a" stroke-width="1.0" />
    <line x1="3" y1="5.58" x2="3" y2="6.42" stroke="#16a34a" stroke-width="1.0" />
    <line x1="0" y1="-1" x2="24" y2="-1" stroke="#facc15" stroke-width="1.2" />
    <line x1="-1" y1="0" x2="-1" y2="16" stroke="#facc15" stroke-width="1.2" />
    <line x1="0" y1="-0.6" x2="0" y2="-1.4" stroke="#facc15" stroke-width="1.0" />
    <line x1="24" y1="-0.6" x2="24" y2="-1.4" stroke="#facc15" stroke-width="1.0" />
    <line x1="-0.6" y1="0" x2="-1.4" y2="0" stroke="#facc15" stroke-width="1.0" />
    <line x1="-0.6" y1="16" x2="-1.4" y2="16" stroke="#facc15" stroke-width="1.0" />
    <text x="7.1" y="10" fill="#e0f2fe" stroke="none" font-size="0.38">Living</text>
    <text x="12" y="10.2" fill="#e0f2fe" stroke="none" font-size="0.36">Bedroom</text>
    <text x="14.5" y="10.2" fill="#e0f2fe" stroke="none" font-size="0.32">Bath</text>
    <text x="7.1" y="6.2" fill="#e0f2fe" stroke="none" font-size="0.36">Kitchen</text>
    <text x="12" y="6.2" fill="#e0f2fe" stroke="none" font-size="0.36">Dining</text>
    <text x="9" y="3.25" fill="#e0f2fe" stroke="none" font-size="0.28">Porch</text>
    <text x="1.7" y="2.3" fill="#e0f2fe" stroke="none" font-size="0.32">Driveway</text>
    <text x="7" y="15" fill="#e0f2fe" stroke="none" font-size="0.42">24 m x 16 m Lot</text>
    <text x="10.2" y="-1.75" fill="#e0f2fe" stroke="none" font-size="0.34">24.00 m</text>
    <text x="-2.5" y="7.6" fill="#e0f2fe" stroke="none" font-size="0.34">16.00 m</text>
    <text x="17.6" y="7.8" fill="#e0f2fe" stroke="none" font-size="0.34">Garden</text>
  </g>
</svg>
