0
SECTION
2
HEADER
9
$INSUNITS
70
6
0
ENDSEC
0
SECTION
2
TABLES
0
TABLE
2
LAYER
70
9
0
LAYER
2
0
70
0
62
7
6
CONTINUOUS
0
LAYER
2
CENTER
70
0
62
7
6
CONTINUOUS
0
LAYER
2
TEXT
70
0
62
7
6
CONTINUOUS
0
LAYER
2
LOT
70
0
62
7
6
CONTINUOUS
0
LAYER
2
BUILDING
70
0
62
7
6
CONTINUOUS
0
LAYER
2
INTERIOR
70
0
62
7
6
CONTINUOUS
0
LAYER
2
DRIVE
70
0
62
7
6
CONTINUOUS
0
LAYER
2
LANDSCAPE
70
0
62
7
6
CONTINUOUS
0
LAYER
2
DIM
70
0
62
7
6
CONTINUOUS
0
ENDTAB
0
ENDSEC
0
SECTION
2
ENTITIES
0
LWPOLYLINE
8
LOT
90
4
70
1
10
0.000000000
20
0.000000000
10
24.000000000
20
0.000000000
10
24.000000000
20
16.000000000
10
0.000000000
20
16.000000000
0
LWPOLYLINE
8
DIM
90
4
70
1
10
2.000000000
20
2.000000000
10
22.000000000
20
2.000000000
10
22.000000000
20
14.000000000
10
2.000000000
20
14.000000000
0
LWPOLYLINE
8
BUILDING
90
4
70
1
10
5.000000000
20
4.000000000
10
17.000000000
20
4.000000000
10
17.000000000
20
12.000000000
10
5.000000000
20
12.000000000
0
LWPOLYLINE
8
BUILDING
90
4
70
1
10
8.000000000
20
3.000000000
10
14.000000000
20
3.000000000
10
14.000000000
20
4.000000000
10
8.000000000
20
4.000000000
0
LINE
8
INTERIOR
10
11.000000000
20
4.000000000
30
0.0
11
11.000000000
21
12.000000000
31
0.0
0
LINE
8
INTERIOR
10
5.000000000
20
8.000000000
30
0.0
11
17.000000000
21
8.000000000
31
0.0
0
LINE
8
INTERIOR
10
14.000000000
20
8.000000000
30
0.0
11
14.000000000
21
12.000000000
31
0.0
0
LINE
8
BUILDING
10
10.000000000
20
4.000000000
30
0.0
11
10.000000000
21
3.350000000
31
0.0
0
LINE
8
BUILDING
10
10.000000000
20
3.350000000
30
0.0
11
10.900000000
21
4.000000000
31
0.0
0
LINE
8
BUILDING
10
11.000000000
20
7.150000000
30
0.0
11
11.900000000
21
8.000000000
31
0.0
0
LINE
8
BUILDING
10
13.100000000
20
8.000000000
30
0.0
11
14.000000000
21
8.850000000
31
0.0
0
LWPOLYLINE
8
DRIVE
90
4
70
1
10
1.000000000
20
1.000000000
10
7.000000000
20
1.000000000
10
7.000000000
20
4.000000000
10
1.000000000
20
4.000000000
0
LINE
8
DRIVE
10
7.000000000
20
2.600000000
30
0.0
11
8.000000000
21
3.500000000
31
0.0
0
LINE
8
DRIVE
10
7.000000000
20
2.000000000
30
0.0
11
8.000000000
21
3.000000000
31
0.0
0
CIRCLE
8
LANDSCAPE
10
3.000000000
20
13.000000000
30
0.0
40
0.800000000
0
LINE
8
LANDSCAPE
10
2.440000000
20
13.000000000
30
0.0
11
3.560000000
21
13.000000000
31
0.0
0
LINE
8
LANDSCAPE
10
3.000000000
20
12.440000000
30
0.0
11
3.000000000
21
13.560000000
31
0.0
0
CIRCLE
8
LANDSCAPE
10
20.000000000
20
12.500000000
30
0.0
40
0.900000000
0
LINE
8
LANDSCAPE
10
19.370000000
20
12.500000000
30
0.0
11
20.630000000
21
12.500000000
31
0.0
0
LINE
8
LANDSCAPE
10
20.000000000
20
11.870000000
30
0.0
11
20.000000000
21
13.130000000
31
0.0
0
CIRCLE
8
LANDSCAPE
10
21.000000000
20
3.200000000
30
0.0
40
0.700000000
0
LINE
8
LANDSCAPE
10
20.510000000
20
3.200000000
30
0.0
11
21.490000000
21
3.200000000
31
0.0
0
LINE
8
LANDSCAPE
10
21.000000000
20
2.710000000
30
0.0
11
21.000000000
21
3.690000000
31
0.0
0
CIRCLE
8
LANDSCAPE
10
3.000000000
20
6.000000000
30
0.0
40
0.600000000
0
LINE
8
LANDSCAPE
10
2.580000000
20
6.000000000
30
0.0
11
3.420000000
21
6.000000000
31
0.0
0
LINE
8
LANDSCAPE
10
3.000000000
20
5.580000000
30
0.0
11
3.000000000
21
6.420000000
31
0.0
0
LINE
8
DIM
10
0.000000000
20
-1.000000000
30
0.0
11
24.000000000
21
-1.000000000
31
0.0
0
LINE
8
DIM
10
-1.000000000
20
0.000000000
30
0.0
11
-1.000000000
21
16.000000000
31
0.0
0
LINE
8
DIM
10
0.000000000
20
-0.600000000
30
0.0
11
0.000000000
21
-1.400000000
31
0.0
0
LINE
8
DIM
10
24.000000000
20
-0.600000000
30
0.0
11
24.000000000
21
-1.400000000
31
0.0
0
LINE
8
DIM
10
-0.600000000
20
0.000000000
30
0.0
11
-1.400000000
21
0.000000000
31
0.0
0
LINE
8
DIM
10
-0.600000000
20
16.000000000
30
0.0
11
-1.400000000
21
16.000000000
31
0.0
0
TEXT
8
TEXT
10
7.100000000
20
10.000000000
30
0.0
40
0.380000000
1
Living
0
TEXT
8
TEXT
10
12.000000000
20
10.200000000
30
0.0
40
0.360000000
1
Bedroom
0
TEXT
8
TEXT
10
14.500000000
20
10.200000000
30
0.0
40
0.320000000
1
Bath
0
TEXT
8
TEXT
10
7.100000000
20
6.200000000
30
0.0
40
0.360000000
1
Kitchen
0
TEXT
8
TEXT
10
12.000000000
20
6.200000000
30
0.0
40
0.360000000
1
Dining
0
TEXT
8
TEXT
10
9.000000000
20
3.250000000
30
0.0
40
0.280000000
1
Porch
0
TEXT
8
TEXT
10
1.700000000
20
2.300000000
30
0.0
40
0.320000000
1
Driveway
0
TEXT
8
TEXT
10
7.000000000
20
15.000000000
30
0.0
40
0.420000000
1
24 m x 16 m Lot
0
TEXT
8
TEXT
10
10.200000000
20
-1.750000000
30
0.0
40
0.340000000
1
24.00 m
0
TEXT
8
TEXT
10
-2.500000000
20
7.600000000
30
0.0
40
0.340000000
1
16.00 m
0
TEXT
8
TEXT
10
17.600000000
20
7.800000000
30
0.0
40
0.340000000
1
Garden
0
ENDSEC
0
EOF
